HIERARCHY
ROOT Hips
{
  OFFSET 184.571 101.689 6.99006
  CHANNELS 6 Xposition Yposition Zposition Zrotation Xrotation Yrotation
  JOINT Spine
  {
    OFFSET 0 6.79576 0
    CHANNELS 6 Xposition Yposition Zposition Zrotation Xrotation Yrotation
    JOINT Spine1
    {
      OFFSET 0 6.79575 0
      CHANNELS 6 Xposition Yposition Zposition Zrotation Xrotation Yrotation
      JOINT Spine2
      {
        OFFSET 0 6.79575 0
        CHANNELS 6 Xposition Yposition Zposition Zrotation Xrotation Yrotation
        JOINT Spine3
        {
          OFFSET 0 6.79575 0
          CHANNELS 6 Xposition Yposition Zposition Zrotation Xrotation Yrotation
          JOINT Neck
          {
            OFFSET -9.25391e-05 14.441 -0.000277691
            CHANNELS 6 Xposition Yposition Zposition Zrotation Xrotation Yrotation
            JOINT Head
            {
              OFFSET 0 9.17427 0
              CHANNELS 6 Xposition Yposition Zposition Zrotation Xrotation Yrotation
              End Site
              {
                OFFSET 0 17.2017 0
              }
            }
          }
          JOINT LeftShoulder
          {
            OFFSET 4.99989 17 -0.000516942
            CHANNELS 6 Xposition Yposition Zposition Zrotation Xrotation Yrotation
            JOINT LeftShoulder2
            {
              OFFSET 6.5 0 0
              CHANNELS 6 Xposition Yposition Zposition Zrotation Xrotation Yrotation
              JOINT LeftArm
              {
                OFFSET 6.5 -1.26295e-05 0.000212689
                CHANNELS 6 Xposition Yposition Zposition Zrotation Xrotation Yrotation
                JOINT LeftForeArm
                {
                  OFFSET -2.87388e-05 -37.9535 -2
                  CHANNELS 6 Xposition Yposition Zposition Zrotation Xrotation Yrotation
                  JOINT LeftHand
                  {
                    OFFSET 0 -30.0465 2
                    CHANNELS 6 Xposition Yposition Zposition Zrotation Xrotation Yrotation
                    JOINT LeftHandThumb1
                    {
                      OFFSET -0.500002 -1.49999 2.65
                      CHANNELS 6 Xposition Yposition Zposition Zrotation Xrotation Yrotation
                      JOINT LeftHandThumb2
                      {
                        OFFSET 0 -3.8 3.7
                        CHANNELS 6 Xposition Yposition Zposition Zrotation Xrotation Yrotation
                        JOINT LeftHandThumb3
                        {
                          OFFSET 0 -3 2.7
                          CHANNELS 6 Xposition Yposition Zposition Zrotation Xrotation Yrotation
                          End Site
                          {
                            OFFSET -1.21387e-05 -2.29999 1.79999
                          }
                        }
                      }
                    }
                    JOINT LeftHandIndex
                    {
                      OFFSET 0 -1.9 1.6
                      CHANNELS 6 Xposition Yposition Zposition Zrotation Xrotation Yrotation
                      JOINT LeftHandIndex1
                      {
                        OFFSET 0 -8.3 1.89999
                        CHANNELS 6 Xposition Yposition Zposition Zrotation Xrotation Yrotation
                        JOINT LeftHandIndex2
                        {
                          OFFSET -1.12986e-05 -4.5 0
                          CHANNELS 6 Xposition Yposition Zposition Zrotation Xrotation Yrotation
                          JOINT LeftHandIndex3
                          {
                            OFFSET 1.5026e-05 -3.4 0
                            CHANNELS 6 Xposition Yposition Zposition Zrotation Xrotation Yrotation
                            End Site
                            {
                              OFFSET 0 -2.6 0
                            }
                          }
                        }
                      }
                    }
                    JOINT LeftHandMiddle
                    {
                      OFFSET -0.250003 -2.2 0.399997
                      CHANNELS 6 Xposition Yposition Zposition Zrotation Xrotation Yrotation
                      JOINT LeftHandMiddle1
                      {
                        OFFSET 0 -8.3 1.00001
                        CHANNELS 6 Xposition Yposition Zposition Zrotation Xrotation Yrotation
                        JOINT LeftHandMiddle2
                        {
                          OFFSET 0 -4.65 0
                          CHANNELS 6 Xposition Yposition Zposition Zrotation Xrotation Yrotation
                          JOINT LeftHandMiddle3
                          {
                            OFFSET 0 -3.3 0
                            CHANNELS 6 Xposition Yposition Zposition Zrotation Xrotation Yrotation
                            End Site
                            {
                              OFFSET 0 -2.7 0
                            }
                          }
                        }
                      }
                    }
                    JOINT LeftHandRing
                    {
                      OFFSET -0.500009 -2.14999 -0.8
                      CHANNELS 6 Xposition Yposition Zposition Zrotation Xrotation Yrotation
                      JOINT LeftHandRing1
                      {
                        OFFSET 0 -7.75 -0.199997
                        CHANNELS 6 Xposition Yposition Zposition Zrotation Xrotation Yrotation
                        JOINT LeftHandRing2
                        {
                          OFFSET 0 -3.8 0
                          CHANNELS 6 Xposition Yposition Zposition Zrotation Xrotation Yrotation
                          JOINT LeftHandRing3
                          {
                            OFFSET 1.21201e-05 -3.4 0
                            CHANNELS 6 Xposition Yposition Zposition Zrotation Xrotation Yrotation
                            End Site
                            {
                              OFFSET 0 -2.60001 0
                            }
                          }
                        }
                      }
                    }
                    JOINT LeftHandPinky
                    {
                      OFFSET -0.749994 -1.75 -1.85
                      CHANNELS 6 Xposition Yposition Zposition Zrotation Xrotation Yrotation
                      JOINT LeftHandPinky1
                      {
                        OFFSET 0 -7.15 -1
                        CHANNELS 6 Xposition Yposition Zposition Zrotation Xrotation Yrotation
                        JOINT LeftHandPinky2
                        {
                          OFFSET 0 -3 0
                          CHANNELS 6 Xposition Yposition Zposition Zrotation Xrotation Yrotation
                          JOINT LeftHandPinky3
                          {
                            OFFSET 0 -2.34999 0
                            CHANNELS 6 Xposition Yposition Zposition Zrotation Xrotation Yrotation
                            End Site
                            {
                              OFFSET 0 -2.1 0
                            }
                          }
                        }
                      }
                    }
                  }
                }
              }
            }
          }
          JOINT RightShoulder
          {
            OFFSET -5.00011 17 -0.000138022
            CHANNELS 6 Xposition Yposition Zposition Zrotation Xrotation Yrotation
            JOINT RightShoulder2
            {
              OFFSET -6.5 0 0
              CHANNELS 6 Xposition Yposition Zposition Zrotation Xrotation Yrotation
              JOINT RightArm
              {
                OFFSET -6.49999 1.07465e-05 -3.00535e-05
                CHANNELS 6 Xposition Yposition Zposition Zrotation Xrotation Yrotation
                JOINT RightForeArm
                {
                  OFFSET 0 -37.9535 -2
                  CHANNELS 6 Xposition Yposition Zposition Zrotation Xrotation Yrotation
                  JOINT RightHand
                  {
                    OFFSET 0 -30.0465 2
                    CHANNELS 6 Xposition Yposition Zposition Zrotation Xrotation Yrotation
                    JOINT RightHandThumb1
                    {
                      OFFSET 0.500002 -1.50001 2.65
                      CHANNELS 6 Xposition Yposition Zposition Zrotation Xrotation Yrotation
                      JOINT RightHandThumb2
                      {
                        OFFSET 0 -3.8 3.7
                        CHANNELS 6 Xposition Yposition Zposition Zrotation Xrotation Yrotation
                        JOINT RightHandThumb3
                        {
                          OFFSET -1.58701e-05 -3.00001 2.70001
                          CHANNELS 6 Xposition Yposition Zposition Zrotation Xrotation Yrotation
                          End Site
                          {
                            OFFSET 0 -2.29999 1.79999
                          }
                        }
                      }
                    }
                    JOINT RightHandIndex
                    {
                      OFFSET 0 -1.9 1.6
                      CHANNELS 6 Xposition Yposition Zposition Zrotation Xrotation Yrotation
                      JOINT RightHandIndex1
                      {
                        OFFSET 0 -8.30001 1.89999
                        CHANNELS 6 Xposition Yposition Zposition Zrotation Xrotation Yrotation
                        JOINT RightHandIndex2
                        {
                          OFFSET 0 -4.50001 0
                          CHANNELS 6 Xposition Yposition Zposition Zrotation Xrotation Yrotation
                          JOINT RightHandIndex3
                          {
                            OFFSET 0 -3.4 0
                            CHANNELS 6 Xposition Yposition Zposition Zrotation Xrotation Yrotation
                            End Site
                            {
                              OFFSET 1.0738e-05 -2.59999 0
                            }
                          }
                        }
                      }
                    }
                    JOINT RightHandMiddle
                    {
                      OFFSET 0.249991 -2.2 0.400002
                      CHANNELS 6 Xposition Yposition Zposition Zrotation Xrotation Yrotation
                      JOINT RightHandMiddle1
                      {
                        OFFSET 1.215e-05 -8.29999 0.999994
                        CHANNELS 6 Xposition Yposition Zposition Zrotation Xrotation Yrotation
                        JOINT RightHandMiddle2
                        {
                          OFFSET 0 -4.65001 0
                          CHANNELS 6 Xposition Yposition Zposition Zrotation Xrotation Yrotation
                          JOINT RightHandMiddle3
                          {
                            OFFSET 0 -3.29999 0
                            CHANNELS 6 Xposition Yposition Zposition Zrotation Xrotation Yrotation
                            End Site
                            {
                              OFFSET 1.65007e-05 -2.70001 0
                            }
                          }
                        }
                      }
                    }
                    JOINT RightHandRing
                    {
                      OFFSET 0.500003 -2.15001 -0.799998
                      CHANNELS 6 Xposition Yposition Zposition Zrotation Xrotation Yrotation
                      JOINT RightHandRing1
                      {
                        OFFSET 0 -7.75 -0.200002
                        CHANNELS 6 Xposition Yposition Zposition Zrotation Xrotation Yrotation
                        JOINT RightHandRing2
                        {
                          OFFSET 0 -3.8 0
                          CHANNELS 6 Xposition Yposition Zposition Zrotation Xrotation Yrotation
                          JOINT RightHandRing3
                          {
                            OFFSET 0 -3.40001 0
                            CHANNELS 6 Xposition Yposition Zposition Zrotation Xrotation Yrotation
                            End Site
                            {
                              OFFSET 0 -2.6 0
                            }
                          }
                        }
                      }
                    }
                    JOINT RightHandPinky
                    {
                      OFFSET 0.749994 -1.75 -1.85
                      CHANNELS 6 Xposition Yposition Zposition Zrotation Xrotation Yrotation
                      JOINT RightHandPinky1
                      {
                        OFFSET 0 -7.15 -0.999999
                        CHANNELS 6 Xposition Yposition Zposition Zrotation Xrotation Yrotation
                        JOINT RightHandPinky2
                        {
                          OFFSET 0 -3.00001 0
                          CHANNELS 6 Xposition Yposition Zposition Zrotation Xrotation Yrotation
                          JOINT RightHandPinky3
                          {
                            OFFSET 0 -2.34999 0
                            CHANNELS 6 Xposition Yposition Zposition Zrotation Xrotation Yrotation
                            End Site
                            {
                              OFFSET 0 -2.09999 0
                            }
                          }
                        }
                      }
                    }
                  }
                }
              }
            }
          }
        }
      }
    }
  }
  JOINT LeftUpLeg
  {
    OFFSET 10 0 0
    CHANNELS 6 Xposition Yposition Zposition Zrotation Xrotation Yrotation
    JOINT LeftLeg
    {
      OFFSET 0 -49.4477 -0.999998
      CHANNELS 6 Xposition Yposition Zposition Zrotation Xrotation Yrotation
      JOINT LeftFoot
      {
        OFFSET 0 -45.0524 -2
        CHANNELS 6 Xposition Yposition Zposition Zrotation Xrotation Yrotation
        JOINT LeftToeBase
        {
          OFFSET 0 -7.5 12.5
          CHANNELS 6 Xposition Yposition Zposition Zrotation Xrotation Yrotation
          JOINT LeftFootToe
          {
            OFFSET 0 0 4
            CHANNELS 6 Xposition Yposition Zposition Zrotation Xrotation Yrotation
            End Site
            {
              OFFSET 0 0 0
            }
          }
        }
      }
    }
  }
  JOINT RightUpLeg
  {
    OFFSET -10 0 0
    CHANNELS 6 Xposition Yposition Zposition Zrotation Xrotation Yrotation
    JOINT RightLeg
    {
      OFFSET 1.35724e-05 -49.4477 -0.999996
      CHANNELS 6 Xposition Yposition Zposition Zrotation Xrotation Yrotation
      JOINT RightFoot
      {
        OFFSET 1.20461e-05 -45.0524 -2
        CHANNELS 6 Xposition Yposition Zposition Zrotation Xrotation Yrotation
        JOINT RightToeBase
        {
          OFFSET 0 -7.5 12.5
          CHANNELS 6 Xposition Yposition Zposition Zrotation Xrotation Yrotation
          JOINT RightFootToe
          {
            OFFSET 0 0 4
            CHANNELS 6 Xposition Yposition Zposition Zrotation Xrotation Yrotation
            End Site
            {
              OFFSET 0 0 0
            }
          }
        }
      }
    }
  }
}
MOTION
Frames:	3
Frame Time:	0.0111111
186.683 101.378 3.79265 -3.33902 1.16036 -158.533 -2.84217e-14 6.79575 0 -2.5613 2.35795 2.60027 0 6.79575 1.42109e-14 0.14247 -1.23486 3.8624 0 6.79575 0 -0.280539 0.13316 7.55118 0 6.79575 0 -0.430936 1.09319 2.76687 -2.84217e-14 14.441 -1.42109e-14 -0.989381 0.410965 9.58123 -1.42109e-14 9.17427 -2.84217e-14 -2.39938 0.686349 22.4842 5 17 -1.42109e-14 1.22058 -0.0757692 -7.10598 6.5 -2.84217e-14 0 1.21991 -0.075365 -7.10585 6.5 -2.84217e-14 -1.42109e-14 19.8146 -30.2481 13.1546 -2.84217e-14 -37.9535 -2 -91.9126 -79.0929 -61.6759 0 -30.0465 2 20.0223 -4.58806 -6.34278 -0.5 -1.5 2.65 1.79454 -15.7746 2.94386 2.84217e-14 -3.8 3.7 0.00222837 9.65577 -0.00925039 0 -3 2.7 -0.0168862 -0.347002 -0.0250328 2.84217e-14 -1.9 1.6 6.44464e-06 1.86115e-06 -3.02707e-06 -2.84217e-14 -8.3 1.9 -0.0327711 -1.54383 -0.000175504 0 -4.5 0 -0.000313433 0.00565726 2.64408e-06 2.84217e-14 -3.4 -4.26326e-14 7.38185e-07 0.00557763 5.52795e-06 -0.25 -2.2 0.4 6.44464e-06 1.86115e-06 -3.02707e-06 -2.84217e-14 -8.3 1 -0.107705 1.16118 0.025887 0 -4.65 0 -5.09336e-05 -7.39601e-06 2.21418e-05 2.84217e-14 -3.3 -1.42109e-14 -3.18055e-15 6.36111e-15 -0 -0.5 -2.15 -0.8 6.44464e-06 1.86115e-06 -3.02707e-06 0 -7.75 -0.2 -6.54833 1.17954 0.127559 2.84217e-14 -3.8 1.42109e-14 -2.5801e-05 -7.76499e-06 -1.67322e-06 0 -3.4 0 3.18055e-15 0 1.59028e-15 -0.75 -1.75 -1.85 6.44464e-06 1.86115e-06 -3.02707e-06 0 -7.15 -1 -1.92604 -11.3375 0.132964 0 -3 -2.84217e-14 -3.16344 -0.0284025 -0.0423495 -2.84217e-14 -2.35 0 -3.03142 0.0769753 0.00839 -5 17 -1.42109e-14 -3.74745 -0.325134 10.0244 -6.5 -5.68434e-14 -2.84217e-14 -3.74776 -0.321433 10.0256 -6.5 1.42109e-14 0 -40.9624 -46.0204 -17.228 0 -37.9535 -2 145.602 -62.1685 126.706 0 -30.0465 2 -25.7467 7.37749 19.0377 0.5 -1.5 2.65 3.33315 14.7736 5.79801 -2.84217e-14 -3.8 3.7 0.696072 6.45483 -0.190179 0 -3 2.7 0.0562958 -4.47636 -0.0191776 0 -1.9 1.6 -7.19013e-06 -1.36097e-05 5.35855e-06 0 -8.3 1.9 0.884094 -7.92018 0.0230155 2.84217e-14 -4.5 0 1.51198 -0.00182837 0.055751 0 -3.4 1.42109e-14 1.48117 -0.00185094 0.00792162 0.25 -2.2 0.4 -7.19013e-06 -1.36097e-05 5.35855e-06 0 -8.3 1 0.530212 -6.14769 -0.0112502 0 -4.65 0 4.11065 -0.000849054 0.000849385 -2.84217e-14 -3.3 0 3.7838 0.123014 0.00277177 0.5 -2.15 -0.8 -7.19013e-06 -1.36097e-05 5.35855e-06 0 -7.75 -0.2 0.70654 -7.03316 -0.0699445 0 -3.8 0 0.0636382 0.00340735 0.00119344 0 -3.4 2.84217e-14 1.50463e-05 0.300018 -0.00655196 0.75 -1.75 -1.85 -7.19013e-06 -1.36097e-05 5.35855e-06 0 -7.15 -1 0.337876 -4.95342 -0.036801 2.84217e-14 -3 0 -1.27785e-06 -0.00205892 -0.00238451 0 -2.35 -1.42109e-14 -1.30115e-05 -0.00180663 -0.00216333 10 1.42109e-14 0 3.56135 -28.2785 -5.90215 2.84217e-14 -49.4477 -1 4.25349 46.2027 -17.2846 -2.84217e-14 -45.0523 -2 -7.16628 -18.9854 39.3036 1.42109e-14 -7.5 12.5 -2.85402e-06 -5.89065e-07 -2.02215e-08 0 1.77636e-15 4 3.08471 -1.80137 -0.000691799 -10 0 0 -12.1801 -1.70585 -2.31309 0 -49.4477 -1 -0.0090023 3.90626 -0.0800784 0 -45.0523 -2 8.89559 -0.91101 7.58966 0 -7.5 12.5 -5.2549e-09 -5.96354e-16 -1.51003e-10 2.84217e-14 0 4 -8.01127 -3.5448 0.108526 
186.683 101.377 3.79533 -3.34381 1.16076 -158.531 0 6.79575 1.42109e-14 -2.56528 2.35919 2.6065 2.84217e-14 6.79575 1.42109e-14 0.142477 -1.235 3.86321 0 6.79575 0 -0.280382 0.133082 7.55154 0 6.79575 2.84217e-14 -0.430808 1.09152 2.76595 0 14.441 1.42109e-14 -0.991962 0.411019 9.57447 0 9.17427 2.84217e-14 -2.40541 0.687119 22.4684 5 17 0 1.22261 -0.0760336 -7.10567 6.5 -2.84217e-14 0 1.22251 -0.0757507 -7.10549 6.5 2.84217e-14 -1.42109e-14 19.773 -30.2449 13.1353 1.42109e-14 -37.9535 -2 -91.9227 -79.0822 -61.6929 2.84217e-14 -30.0465 2 20.0616 -4.61089 -6.39527 -0.5 -1.5 2.65 1.77429 -15.7315 2.90691 -2.84217e-14 -3.8 3.7 0.0012741 9.71951 -0.00925215 0 -3 2.7 -0.0168768 -0.346705 -0.0252139 0 -1.9 1.6 6.44464e-06 1.86115e-06 -3.02707e-06 0 -8.3 1.9 -0.033092 -1.54415 -7.30079e-05 -2.84217e-14 -4.5 4.26326e-14 -0.000313433 0.00565726 2.64408e-06 2.84217e-14 -3.4 1.42109e-14 7.38185e-07 0.00557763 5.52795e-06 -0.25 -2.2 0.4 6.44464e-06 1.86115e-06 -3.02707e-06 2.84217e-14 -8.3 1 -0.124533 1.1708 0.0259115 2.84217e-14 -4.65 -1.42109e-14 -5.09336e-05 -7.39601e-06 2.21418e-05 -2.84217e-14 -3.3 0 -7.06225e-31 6.36111e-15 6.36111e-15 -0.5 -2.15 -0.8 6.44464e-06 1.86115e-06 -3.02707e-06 0 -7.75 -0.2 -6.58595 1.19053 0.127953 2.84217e-14 -3.8 2.84217e-14 -2.5801e-05 -7.76499e-06 -1.67322e-06 0 -3.4 -1.42109e-14 3.18055e-15 0 -1.59028e-15 -0.75 -1.75 -1.85 6.44464e-06 1.86115e-06 -3.02707e-06 0 -7.15 -1 -1.92412 -11.3325 0.133537 2.84217e-14 -3 -4.26326e-14 -3.19124 -0.0290033 -0.0429653 0 -2.35 1.42109e-14 -3.05692 0.0780331 0.00839 -5 17 0 -3.73656 -0.324982 10.0236 -6.5 0 5.68434e-14 -3.7384 -0.321534 10.0256 -6.5 -1.42109e-14 0 -41.0301 -45.9751 -17.2569 0 -37.9535 -2 145.665 -62.1077 126.75 0 -30.0465 2 -25.764 7.38156 19.0419 0.5 -1.5 2.65 3.33921 14.7405 5.78175 2.84217e-14 -3.8 3.7 0.69638 6.46882 -0.190182 -5.68434e-14 -3 2.7 0.0561527 -4.47677 -0.0192095 2.84217e-14 -1.9 1.6 -7.19013e-06 -1.36097e-05 5.35855e-06 0 -8.3 1.9 0.885085 -7.92143 0.0230491 2.84217e-14 -4.5 0 1.52593 -0.00182837 0.0555959 0 -3.4 0 1.49458 -0.00185094 0.00792162 0.25 -2.2 0.4 -7.19013e-06 -1.36097e-05 5.35855e-06 2.84217e-14 -8.3 1 0.532866 -6.16074 -0.0112505 0 -4.65 -1.42109e-14 4.08669 -0.000849054 0.000849385 0 -3.3 0 3.76227 0.123037 0.00277177 0.5 -2.15 -0.8 -7.19013e-06 -1.36097e-05 5.35855e-06 2.84217e-14 -7.75 -0.2 0.706002 -7.02612 -0.069729 0 -3.8 4.26326e-14 0.0636382 0.00340735 0.00119344 0 -3.4 -1.42109e-14 1.50628e-05 0.300162 -0.00655196 0.75 -1.75 -1.85 -7.19013e-06 -1.36097e-05 5.35855e-06 0 -7.15 -1 0.338303 -4.95545 -0.0368011 5.68434e-14 -3 -2.84217e-14 -1.27785e-06 -0.00205892 -0.00238451 2.84217e-14 -2.35 0 -1.30115e-05 -0.00180663 -0.00216333 10 0 0 3.5492 -28.2764 -5.91595 2.84217e-14 -49.4477 -1 4.25382 46.204 -17.2846 0 -45.0523 -2 -7.16507 -18.9856 39.3145 -1.42109e-14 -7.5 12.5 -2.85402e-06 -5.89065e-07 -2.02215e-08 1.42109e-14 0 4 3.08442 -1.80598 -0.0006968 -10 -1.42109e-14 1.42109e-14 -12.1868 -1.70412 -2.31516 2.84217e-14 -49.4477 -1 -0.00911916 3.90625 -0.0802798 2.84217e-14 -45.0523 -2 8.89558 -0.910398 7.58943 0 -7.5 12.5 -5.2549e-09 -9.93923e-16 -1.51003e-10 -2.84217e-14 5.55112e-17 4 -8.01285 -3.54473 0.108377 
186.68 101.377 3.79755 -3.3489 1.16159 -158.53 2.84217e-14 6.79575 1.42109e-14 -2.56953 2.36156 2.61287 -2.84217e-14 6.79575 0 0.142527 -1.235 3.86499 -2.84217e-14 6.79575 0 -0.280227 0.133002 7.55219 0 6.79575 1.42109e-14 -0.430681 1.08988 2.76513 2.84217e-14 14.441 0 -0.995319 0.412489 9.56831 1.42109e-14 9.17427 0 -2.4138 0.69109 22.4541 5 17 1.42109e-14 1.22541 -0.0762987 -7.10483 6.5 0 0 1.22541 -0.0761193 -7.105 6.5 0 0 19.7283 -30.2422 13.1173 -1.42109e-14 -37.9535 -2 -91.9276 -79.0658 -61.7052 0 -30.0465 2 20.1002 -4.63357 -6.43766 -0.5 -1.5 2.65 1.75701 -15.6975 2.87226 2.84217e-14 -3.8 3.7 0.000330645 9.77633 -0.00925373 2.84217e-14 -3 2.7 -0.0168777 -0.346385 -0.0253938 2.84217e-14 -1.9 1.6 6.44464e-06 1.86115e-06 -3.02707e-06 0 -8.3 1.9 -0.0334212 -1.54376 3.02939e-05 0 -4.5 -1.42109e-14 -0.000313433 0.00565726 2.64408e-06 0 -3.4 0 7.38185e-07 0.00557763 5.52795e-06 -0.25 -2.2 0.4 6.44464e-06 1.86115e-06 -3.02707e-06 -2.84217e-14 -8.3 1 -0.140094 1.17998 0.0259289 0 -4.65 2.84217e-14 -5.09336e-05 -7.39601e-06 2.21418e-05 2.84217e-14 -3.3 0 -3.18055e-15 6.36111e-15 6.36111e-15 -0.5 -2.15 -0.8 6.44464e-06 1.86115e-06 -3.02707e-06 0 -7.75 -0.2 -6.61913 1.202 0.128407 2.84217e-14 -3.8 -1.42109e-14 -2.5801e-05 -7.76499e-06 -1.67322e-06 0 -3.4 1.42109e-14 3.18055e-15 3.18055e-15 -0 -0.75 -1.75 -1.85 6.44464e-06 1.86115e-06 -3.02707e-06 2.84217e-14 -7.15 -1 -1.92218 -11.3271 0.13409 2.84217e-14 -3 -4.26326e-14 -3.21636 -0.0296038 -0.0435791 -2.84217e-14 -2.35 0 -3.07996 0.0790852 0.00839 -5 17 1.42109e-14 -3.7244 -0.324782 10.0227 -6.5 0 -2.84217e-14 -3.72515 -0.321638 10.0254 -6.5 1.42109e-14 2.84217e-14 -41.1079 -45.9245 -17.2884 0 -37.9535 -2 145.726 -62.0461 126.79 2.84217e-14 -30.0465 2 -25.7695 7.37665 19.0389 0.5 -1.5 2.65 3.34036 14.7317 5.77957 0 -3.8 3.7 0.696694 6.47453 -0.190181 -2.84217e-14 -3 2.7 0.0560092 -4.47755 -0.0192413 0 -1.9 1.6 -7.19013e-06 -1.36097e-05 5.35855e-06 0 -8.3 1.9 0.886101 -7.92286 0.0230861 0 -4.5 -2.84217e-14 1.52652 -0.00182837 0.0554409 0 -3.4 -1.42109e-14 1.49515 -0.00185094 0.00792162 0.25 -2.2 0.4 -7.19013e-06 -1.36097e-05 5.35855e-06 -2.84217e-14 -8.3 1 0.535206 -6.17313 -0.0112508 2.84217e-14 -4.65 0 4.06595 -0.000849054 0.000849385 -2.84217e-14 -3.3 1.42109e-14 3.74363 0.123059 0.00277177 0.5 -2.15 -0.8 -7.19013e-06 -1.36097e-05 5.35855e-06 0 -7.75 -0.2 0.705422 -7.02075 -0.0695144 0 -3.8 0 0.0636382 0.00340735 0.00119344 0 -3.4 1.42109e-14 1.50794e-05 0.300307 -0.00655196 0.75 -1.75 -1.85 -7.19013e-06 -1.36097e-05 5.35855e-06 -2.84217e-14 -7.15 -1 0.33874 -4.95558 -0.0368011 0 -3 2.84217e-14 -1.27785e-06 -0.00205892 -0.00238451 0 -2.35 2.84217e-14 -1.30115e-05 -0.00180663 -0.00216333 10 -1.42109e-14 -1.42109e-14 3.53549 -28.2728 -5.93165 -5.68434e-14 -49.4477 -1 4.25404 46.2066 -17.2848 0 -45.0523 -2 -7.16327 -18.9876 39.3283 -1.42109e-14 -7.5 12.5 -2.85402e-06 -5.89065e-07 -2.02215e-08 0 1.77636e-15 4 3.08407 -1.80925 -0.000701815 -10 0 1.42109e-14 -12.1944 -1.70109 -2.31888 0 -49.4477 -1 -0.0092378 3.90625 -0.08048 -2.84217e-14 -45.0523 -2 8.89714 -0.909821 7.59283 -2.84217e-14 -7.5 12.5 -5.2549e-09 -5.96354e-16 -1.51003e-10 0 -1.66533e-16 4 -8.01454 -3.54464 0.108239 
